<svg width="308" height="150" xmlns="http://www.w3.org/2000/svg">
 <!-- Created with Method Draw - http://github.com/duopixel/Method-Draw/ -->

 <g>
  <title>background</title>
  <rect fill="none" id="canvas_background" height="227" width="150" y="-1" x="-1"/>
  <g display="none" overflow="visible" y="0" x="0" height="100%" width="100%" id="canvasGrid">
   <rect fill="url(#gridpattern)" stroke-width="0" y="0" x="0" height="100%" width="100%"/>
  </g>
 </g>
 <g>
  <title>Layer 1</title>
  <g stroke="null" id="svg_42">
   <g stroke="null" transform="matrix(0.3373488627056379,0,0,0.3373488627056379,-1083.5737970213813,-849.6512453638934) " id="svg_6">
    <g stroke="null" id="svg_7">
     <path stroke="null" id="svg_8" fill="#e6e8d3" d="m3884.941988,2594.139091l-48.303,0l-29.364,-48.937c-0.029,-0.048 -0.063,-0.091 -0.092,-0.138c-0.085,-0.134 -0.172,-0.264 -0.264,-0.393c-0.068,-0.095 -0.137,-0.188 -0.208,-0.278c-0.082,-0.105 -0.168,-0.208 -0.256,-0.309c-0.089,-0.101 -0.177,-0.2 -0.27,-0.296c-0.08,-0.084 -0.164,-0.165 -0.248,-0.245c-0.103,-0.098 -0.207,-0.195 -0.315,-0.287c-0.087,-0.074 -0.176,-0.145 -0.265,-0.215c-0.109,-0.085 -0.22,-0.169 -0.332,-0.248c-0.103,-0.072 -0.208,-0.139 -0.313,-0.206c-0.105,-0.067 -0.21,-0.132 -0.318,-0.193c-0.124,-0.07 -0.25,-0.135 -0.377,-0.198c-0.095,-0.048 -0.191,-0.095 -0.288,-0.138c-0.141,-0.063 -0.286,-0.121 -0.431,-0.176c-0.092,-0.035 -0.183,-0.069 -0.274,-0.1c-0.148,-0.05 -0.299,-0.094 -0.452,-0.136c-0.098,-0.027 -0.196,-0.053 -0.295,-0.076c-0.143,-0.033 -0.288,-0.061 -0.433,-0.087c-0.117,-0.021 -0.236,-0.039 -0.355,-0.055c-0.127,-0.016 -0.255,-0.029 -0.384,-0.039c-0.145,-0.012 -0.29,-0.019 -0.436,-0.022c-0.061,-0.002 -0.122,-0.009 -0.183,-0.009l-158.346,0c-0.058,0 -0.112,0.007 -0.17,0.009c-0.155,0.004 -0.309,0.011 -0.463,0.023c-0.119,0.009 -0.238,0.022 -0.357,0.036c-0.128,0.016 -0.256,0.036 -0.384,0.059c-0.136,0.024 -0.272,0.051 -0.406,0.081c-0.107,0.025 -0.214,0.053 -0.322,0.082c-0.144,0.04 -0.287,0.081 -0.428,0.129c-0.099,0.033 -0.197,0.071 -0.295,0.108c-0.139,0.053 -0.276,0.108 -0.411,0.168c-0.103,0.046 -0.204,0.096 -0.305,0.147c-0.123,0.061 -0.244,0.124 -0.363,0.191c-0.111,0.063 -0.219,0.13 -0.326,0.198c-0.103,0.065 -0.206,0.131 -0.307,0.202c-0.113,0.08 -0.225,0.164 -0.335,0.251c-0.09,0.07 -0.178,0.14 -0.264,0.213c-0.107,0.092 -0.211,0.188 -0.314,0.286c-0.086,0.081 -0.169,0.163 -0.251,0.248c-0.091,0.095 -0.179,0.193 -0.266,0.293c-0.089,0.102 -0.175,0.206 -0.259,0.312c-0.071,0.09 -0.139,0.182 -0.206,0.276c-0.092,0.128 -0.18,0.26 -0.265,0.394c-0.029,0.048 -0.063,0.09 -0.092,0.138l-29.364,48.937l-72.055,0l0,-23.751c0,-4.373 -3.544,-7.917 -7.917,-7.917l-63.34,0c-4.373,0 -7.917,3.545 -7.917,7.917l0,23.751l-2.641,0c-21.829,0 -39.588,17.759 -39.588,39.587l0,274.474c0,21.829 17.759,39.587 39.587,39.587l432.825,0c21.829,0 39.587,-17.759 39.587,-39.587l0,-274.474c0.001,-21.828 -17.758,-39.587 -39.586,-39.587zm-414.35,-15.834l47.505,0l0,15.834l-47.505,0l0,-15.834zm414.35,353.648l-351.01,0l0,-298.226c0,-4.373 -3.544,-7.917 -7.917,-7.917c-4.373,0 -7.917,3.545 -7.917,7.917l0,298.226l-65.982,0c-13.097,0 -23.752,-10.655 -23.752,-23.752l0,-55.952l23.754,0c4.373,0 7.917,-3.545 7.917,-7.917c0,-4.373 -3.544,-7.917 -7.917,-7.917l-23.754,0l0,-26.128l23.754,0c4.373,0 7.917,-3.545 7.917,-7.917c0,-4.373 -3.544,-7.917 -7.917,-7.917l-23.754,0l0,-26.13l23.754,0c4.373,0 7.917,-3.545 7.917,-7.917c0,-4.373 -3.544,-7.917 -7.917,-7.917l-23.754,0l0,-26.128l23.754,0c4.373,0 7.917,-3.545 7.917,-7.917c0,-4.373 -3.544,-7.917 -7.917,-7.917l-23.754,0l0,-76.799c0,-13.097 10.656,-23.752 23.752,-23.752l158.331,0c0.005,0 0.01,0.001 0.015,0.001c0.018,0 0.034,-0.003 0.051,-0.003c0.298,-0.002 0.59,-0.023 0.878,-0.056c0.081,-0.01 0.162,-0.025 0.243,-0.037c0.234,-0.035 0.465,-0.078 0.693,-0.133c0.079,-0.02 0.159,-0.04 0.238,-0.062c0.244,-0.067 0.482,-0.145 0.716,-0.234c0.056,-0.021 0.111,-0.038 0.165,-0.06c0.289,-0.117 0.568,-0.248 0.838,-0.396c0.046,-0.026 0.091,-0.057 0.137,-0.084c0.213,-0.124 0.422,-0.256 0.623,-0.399c0.088,-0.062 0.172,-0.127 0.258,-0.193c0.168,-0.13 0.33,-0.267 0.487,-0.41c0.072,-0.065 0.146,-0.128 0.217,-0.197c0.217,-0.211 0.421,-0.434 0.611,-0.67c0.039,-0.048 0.073,-0.099 0.111,-0.148c0.164,-0.213 0.317,-0.435 0.46,-0.663c0.022,-0.035 0.048,-0.065 0.07,-0.1l29.364,-48.937l149.382,0l29.364,48.937c0.022,0.036 0.048,0.065 0.069,0.1c0.143,0.229 0.297,0.451 0.462,0.663c0.037,0.048 0.071,0.1 0.11,0.148c0.191,0.235 0.395,0.458 0.611,0.67c0.07,0.069 0.144,0.131 0.216,0.197c0.157,0.143 0.319,0.28 0.487,0.41c0.086,0.066 0.17,0.131 0.258,0.193c0.201,0.143 0.408,0.275 0.623,0.399c0.046,0.027 0.091,0.058 0.137,0.084c0.269,0.149 0.55,0.279 0.837,0.396c0.055,0.022 0.111,0.04 0.166,0.06c0.234,0.089 0.472,0.167 0.716,0.234c0.079,0.022 0.159,0.042 0.238,0.062c0.228,0.055 0.459,0.098 0.693,0.133c0.081,0.012 0.162,0.027 0.243,0.037c0.289,0.033 0.58,0.054 0.878,0.056c0.016,0 0.033,0.003 0.05,0.003c0.005,0 0.01,-0.001 0.016,-0.001l52.762,0c13.097,0 23.752,10.655 23.752,23.752l0,274.473l0.002,0c0,13.097 -10.656,23.752 -23.752,23.752z"/>
    </g>
   </g>
   <g stroke="null" transform="matrix(0.3373488627056379,0,0,0.3373488627056379,-1083.5737970213813,-849.6512453638934) " id="svg_9">
    <g stroke="null" id="svg_10">
     <path stroke="null" id="svg_11" fill="#e6e8d3" d="m3721.299988,2668.035091c-59.665,0 -108.205,48.541 -108.205,108.205s48.541,108.205 108.205,108.205s108.205,-48.541 108.205,-108.205c0,-59.665 -48.541,-108.205 -108.205,-108.205zm0,200.575c-50.934,0 -92.37,-41.437 -92.37,-92.37s41.437,-92.37 92.37,-92.37c50.934,0 92.37,41.437 92.37,92.37s-41.437,92.37 -92.37,92.37z"/>
    </g>
   </g>
   <g stroke="null" transform="matrix(0.3373488627056379,0,0,0.3373488627056379,-1083.5737970213813,-849.6512453638934) " id="svg_12">
    <g stroke="null" id="svg_13">
     <path stroke="null" id="svg_14" fill="#e6e8d3" d="m3766.250988,2739.439091c-6.751,-6.752 -15.727,-10.47 -25.275,-10.47c-7.102,0 -13.889,2.058 -19.677,5.89c-5.791,-3.832 -12.576,-5.89 -19.678,-5.89c-9.546,0 -18.523,3.717 -25.277,10.471c-13.931,13.939 -13.931,36.617 0.002,50.554l39.356,39.352c1.545,1.546 3.572,2.319 5.598,2.319s4.052,-0.773 5.599,-2.319l39.351,-39.352c6.753,-6.752 10.474,-15.73 10.474,-25.278c0,-9.549 -3.721,-18.526 -10.473,-25.277zm-11.198,39.357l-33.753,33.754l-33.758,-33.753c-7.761,-7.763 -7.76,-20.398 -0.001,-28.161c3.762,-3.761 8.762,-5.832 14.079,-5.832c5.319,0 10.32,2.072 14.082,5.833c3.091,3.091 8.103,3.09 11.196,-0.002c3.76,-3.76 8.759,-5.831 14.077,-5.831s10.317,2.071 14.078,5.832c3.763,3.761 5.835,8.761 5.835,14.079c0.001,5.318 -2.071,10.319 -5.835,14.081z"/>
    </g>
   </g>
   <g stroke="null" transform="matrix(0.3373488627056379,0,0,0.3373488627056379,-1083.5737970213813,-849.6512453638934) " id="svg_15">
    <g stroke="null" id="svg_16">
     <path stroke="null" id="svg_17" fill="#e6e8d3" d="m3797.282988,2599.116091l-8.445,-21.111c-0.007,-0.017 -0.016,-0.031 -0.022,-0.048c-0.07,-0.171 -0.149,-0.336 -0.231,-0.5c-0.037,-0.075 -0.07,-0.153 -0.109,-0.226c-0.071,-0.135 -0.152,-0.263 -0.231,-0.393c-0.059,-0.097 -0.114,-0.198 -0.177,-0.293c-0.056,-0.083 -0.118,-0.159 -0.175,-0.239c-0.096,-0.132 -0.19,-0.266 -0.293,-0.39c-0.023,-0.028 -0.049,-0.054 -0.073,-0.083c-0.307,-0.362 -0.64,-0.697 -1.002,-0.995c-0.031,-0.026 -0.065,-0.048 -0.097,-0.073c-0.164,-0.13 -0.329,-0.258 -0.502,-0.375c-0.183,-0.125 -0.376,-0.239 -0.571,-0.348c-0.023,-0.013 -0.045,-0.029 -0.068,-0.042c-0.415,-0.228 -0.856,-0.415 -1.312,-0.566c-0.029,-0.01 -0.058,-0.022 -0.088,-0.032c-0.158,-0.05 -0.322,-0.089 -0.483,-0.129c-0.092,-0.023 -0.181,-0.051 -0.273,-0.07c-0.115,-0.025 -0.234,-0.039 -0.352,-0.059c-0.145,-0.024 -0.29,-0.051 -0.436,-0.067c-0.087,-0.009 -0.174,-0.011 -0.261,-0.018c-0.18,-0.013 -0.361,-0.026 -0.542,-0.027c-0.018,0 -0.035,-0.003 -0.053,-0.003l-120.346,0c-0.016,0 -0.03,0.002 -0.045,0.002c-0.195,0.002 -0.389,0.014 -0.581,0.029c-0.074,0.006 -0.148,0.008 -0.222,0.015c-0.163,0.017 -0.324,0.046 -0.484,0.074c-0.101,0.018 -0.204,0.03 -0.304,0.051c-0.111,0.024 -0.221,0.056 -0.33,0.085c-0.144,0.037 -0.289,0.07 -0.429,0.114c-0.053,0.016 -0.103,0.039 -0.155,0.057c-0.192,0.065 -0.381,0.132 -0.567,0.211c-0.01,0.005 -0.021,0.01 -0.031,0.015c-0.222,0.096 -0.439,0.2 -0.649,0.315c-0.052,0.028 -0.099,0.062 -0.149,0.091c-0.166,0.096 -0.332,0.192 -0.491,0.299c-0.183,0.123 -0.357,0.257 -0.529,0.396c-0.023,0.019 -0.048,0.035 -0.071,0.053c-0.36,0.297 -0.692,0.63 -0.999,0.992c-0.025,0.029 -0.053,0.056 -0.077,0.087c-0.102,0.124 -0.195,0.256 -0.289,0.387c-0.06,0.081 -0.123,0.159 -0.178,0.243c-0.062,0.093 -0.117,0.193 -0.176,0.29c-0.079,0.131 -0.161,0.26 -0.233,0.395c-0.038,0.073 -0.071,0.151 -0.108,0.226c-0.081,0.164 -0.161,0.329 -0.231,0.5c-0.006,0.017 -0.014,0.032 -0.022,0.048l-8.445,21.111c-1.625,4.061 0.349,8.668 4.409,10.293c0.965,0.386 1.96,0.569 2.939,0.569c3.141,0 6.114,-1.883 7.354,-4.979l6.455,-16.134l109.622,0l6.455,16.134c1.239,3.096 4.211,4.979 7.354,4.979c0.979,0 1.974,-0.183 2.939,-0.569c4.06,-1.624 6.034,-6.232 4.41,-10.292z"/>
    </g>
   </g>
   <g stroke="null" transform="matrix(0.3373488627056379,0,0,0.3373488627056379,-1083.5737970213813,-849.6512453638934) " id="svg_18">
    <g stroke="null" id="svg_19">
     <path stroke="null" id="svg_20" fill="#e6e8d3" d="m3869.110988,2625.810091c-13.101,0 -23.759,10.658 -23.759,23.759c0,13.1 10.658,23.759 23.759,23.759s23.759,-10.658 23.759,-23.759c-0.001,-13.101 -10.658,-23.759 -23.759,-23.759zm0,31.682c-4.369,0 -7.924,-3.555 -7.924,-7.924s3.555,-7.924 7.924,-7.924c4.369,0 7.924,3.555 7.924,7.924s-3.555,7.924 -7.924,7.924z"/>
    </g>
   </g>
   <g stroke="null" transform="matrix(0.3373488627056379,0,0,0.3373488627056379,-1083.5737970213813,-849.6512453638934) " id="svg_21">
    <g stroke="null" id="svg_22">
     <path stroke="null" id="svg_23" fill="#e6e8d3" d="m3856.960988,2742.134091c-15.265,-60.696 -70.295,-105.769 -135.662,-105.769c-77.127,0 -139.875,62.748 -139.875,139.875s62.748,139.875 139.875,139.875c65.366,0 120.397,-45.073 135.662,-105.77c17.182,-1.854 30.605,-16.44 30.605,-34.105c0,-17.667 -13.422,-32.253 -30.605,-34.106zm-135.661,158.146c-68.396,0 -124.04,-55.644 -124.04,-124.04s55.644,-124.04 124.04,-124.04c59.615,0 109.535,42.275 121.373,98.419c0.004,0.056 0.003,0.111 0.008,0.167c0.06,0.587 0.188,1.15 0.365,1.689c1.5,7.694 2.294,15.638 2.294,23.765c0,68.396 -55.644,124.04 -124.04,124.04zm138.824,-106.904c0.689,-5.617 1.05,-11.335 1.05,-17.136c0,-5.801 -0.362,-11.519 -1.052,-17.136c6.794,2.732 11.608,9.377 11.608,17.136c0.001,7.759 -4.813,14.404 -11.606,17.136z"/>
    </g>
   </g>
   <g stroke="null" transform="matrix(0.3373488627056379,0,0,0.3373488627056379,-1083.5737970213813,-849.6512453638934) " id="svg_24">
    <g stroke="null" id="svg_25">
     <path stroke="null" id="svg_26" fill="#e6e8d3" d="m3589.354988,2646.924091l-31.67,0c-4.373,0 -7.917,3.545 -7.917,7.917c0,4.373 3.544,7.917 7.917,7.917l31.67,0c4.373,0 7.917,-3.545 7.917,-7.917c0,-4.373 -3.544,-7.917 -7.917,-7.917z"/>
    </g>
   </g>
   <g stroke="null" transform="matrix(0.3373488627056379,0,0,0.3373488627056379,-1083.5737970213813,-849.6512453638934) " id="svg_27"/>
   <g stroke="null" transform="matrix(0.3373488627056379,0,0,0.3373488627056379,-1083.5737970213813,-849.6512453638934) " id="svg_28"/>
   <g stroke="null" transform="matrix(0.3373488627056379,0,0,0.3373488627056379,-1083.5737970213813,-849.6512453638934) " id="svg_29"/>
   <g stroke="null" transform="matrix(0.3373488627056379,0,0,0.3373488627056379,-1083.5737970213813,-849.6512453638934) " id="svg_30"/>
   <g stroke="null" transform="matrix(0.3373488627056379,0,0,0.3373488627056379,-1083.5737970213813,-849.6512453638934) " id="svg_31"/>
   <g stroke="null" transform="matrix(0.3373488627056379,0,0,0.3373488627056379,-1083.5737970213813,-849.6512453638934) " id="svg_32"/>
   <g stroke="null" transform="matrix(0.3373488627056379,0,0,0.3373488627056379,-1083.5737970213813,-849.6512453638934) " id="svg_33"/>
   <g stroke="null" transform="matrix(0.3373488627056379,0,0,0.3373488627056379,-1083.5737970213813,-849.6512453638934) " id="svg_34"/>
   <g stroke="null" transform="matrix(0.3373488627056379,0,0,0.3373488627056379,-1083.5737970213813,-849.6512453638934) " id="svg_35"/>
   <g stroke="null" transform="matrix(0.3373488627056379,0,0,0.3373488627056379,-1083.5737970213813,-849.6512453638934) " id="svg_36"/>
   <g stroke="null" transform="matrix(0.3373488627056379,0,0,0.3373488627056379,-1083.5737970213813,-849.6512453638934) " id="svg_37"/>
   <g stroke="null" transform="matrix(0.3373488627056379,0,0,0.3373488627056379,-1083.5737970213813,-849.6512453638934) " id="svg_38"/>
   <g stroke="null" transform="matrix(0.3373488627056379,0,0,0.3373488627056379,-1083.5737970213813,-849.6512453638934) " id="svg_39"/>
   <g stroke="null" transform="matrix(0.3373488627056379,0,0,0.3373488627056379,-1083.5737970213813,-849.6512453638934) " id="svg_40"/>
   <g stroke="null" transform="matrix(0.3373488627056379,0,0,0.3373488627056379,-1083.5737970213813,-849.6512453638934) " id="svg_41"/>
  </g>
 </g>
</svg>